<svg xmlns="http://www.w3.org/2000/svg" viewBox="0 0 512 512" fill="none" aria-hidden="true">
  <rect width="512" height="512" rx="112" fill="#000000" />
  <g stroke="#FFFFFF" stroke-linecap="round" stroke-linejoin="round" stroke-width="22">
    <path d="M256 84c47 0 84 37 84 84 0 55-42 81-84 124-42-43-84-69-84-124 0-47 37-84 84-84Z" />
    <path d="M256 136c19 0 34 15 34 34 0 21-17 34-34 52-17-18-34-31-34-52 0-19 15-34 34-34Z" />
    <path d="M428 256c0 47-37 84-84 84-55 0-81-42-124-84 43-42 69-84 124-84 47 0 84 37 84 84Z" />
    <path d="M376 256c0 19-15 34-34 34-21 0-34-17-52-34 18-17 31-34 52-34 19 0 34 15 34 34Z" />
    <path d="M256 428c-47 0-84-37-84-84 0-55 42-81 84-124 42 43 84 69 84 124 0 47-37 84-84 84Z" />
    <path d="M256 376c-19 0-34-15-34-34 0-21 17-34 34-52 17 18 34 31 34 52 0 19-15 34-34 34Z" />
    <path d="M84 256c0-47 37-84 84-84 55 0 81 42 124 84-43 42-69 84-124 84-47 0-84-37-84-84Z" />
    <path d="M136 256c0-19 15-34 34-34 21 0 34 17 52 34-18 17-31 34-52 34-19 0-34-15-34-34Z" />
    <path d="M232 232l48 48" />
    <path d="M280 232l-48 48" />
  </g>
</svg>
